<?xml version="1.0" encoding="utf-8"?>
<svg xmlns="http://www.w3.org/2000/svg" xmlns:xlink="http://www.w3.org/1999/xlink" width="512" height="512" style="overflow: visible;" viewBox="0 0 512 512" data-svgdocument="" id="_3qcLrDpQ6JrxcWAie__xY" class="fl-svgdocument" x="0" y="0">
  <defs id="_Mz_1Sy8Z-r4V5NhIO4399" transform="matrix(0.645370889586219, 0, 0, 0.645370889586219, -19.26109727282745, 186.82331293117332)" data-uid="o_el426ge3d_6"/>
  <path text="Jinnyu" text-anchor="start" font-size="100" letter-spacing="0" side="left" offset="0" dx="0" dy="0" space="preserve" href="" font-family="Bungee" font-scale="contain" transform="matrix(0.5749486598171386, 0, 0, 0.5749486598171386, 175.14578968899872, 260.1620867223111)" x="0" y="0" fill="#334747" data-fl-textpath="" id="_dbHH01i2xlTP3TKjYS3EL" data-uid="o_el426ge3d_7" d="M 62.4-68.4L 62.4-18.9Q 62.4-14.3  61.1-10.55Q 59.8-6.8  56.55-4.15Q 53.3-1.5  47.6 0Q 41.9 1.5  33.1 1.5L 33.1 1.5Q 24.4 1.5  18.75 0Q 13.1-1.5  9.85-4.15Q 6.6-6.8  5.35-10.55Q 4.1-14.3  4.1-18.9L 4.1-18.9L 4.1-35.1Q 4.1-37  4.95-37.85Q 5.8-38.7  7.7-38.7L 7.7-38.7L 22.2-38.7Q 24.1-38.7  24.95-37.85Q 25.8-37  25.8-35.1L 25.8-35.1L 25.8-22.9Q 25.8-20.9  27.05-19.55Q 28.3-18.2  32.9-18.2L 32.9-18.2Q 37.2-18.2  38.35-19.55Q 39.5-20.9  39.5-22.9L 39.5-22.9L 39.5-68.4Q 39.5-70.3  40.35-71.15Q 41.2-72  43.1-72L 43.1-72L 58.8-72Q 60.7-72  61.55-71.15Q 62.4-70.3  62.4-68.4L 62.4-68.4ZM 120.3 0L 77.7 0Q 75.8 0  74.95-0.85Q 74.1-1.7  74.1-3.6L 74.1-3.6L 74.1-15.5Q 74.1-17.4  74.95-18.25Q 75.8-19.1  77.7-19.1L 77.7-19.1L 87.6-19.1L 87.6-52.7L 77.7-52.7Q 75.8-52.7  74.95-53.55Q 74.1-54.4  74.1-56.3L 74.1-56.3L 74.1-68.4Q 74.1-70.3  74.95-71.15Q 75.8-72  77.7-72L 77.7-72L 120.3-72Q 122.19999999999999-72  123.05-71.15Q 123.9-70.3  123.9-68.4L 123.9-68.4L 123.9-56.3Q 123.9-54.4  123.05-53.55Q 122.19999999999999-52.7  120.3-52.7L 120.3-52.7L 110.6-52.7L 110.6-19.1L 120.3-19.1Q 122.19999999999999-19.1  123.05-18.25Q 123.9-17.4  123.9-15.5L 123.9-15.5L 123.9-3.6Q 123.9-1.7  123.05-0.85Q 122.19999999999999 0  120.3 0L 120.3 0ZM 154.8 0L 154.8 0L 139.8 0Q 137.9 0  137.05-0.85Q 136.20000000000002-1.7  136.20000000000002-3.6L 136.20000000000002-3.6L 136.20000000000002-68.4Q 136.20000000000002-70.3  137.05-71.15Q 137.9-72  139.8-72L 139.8-72L 150.20000000000002-72Q 152.10000000000002-72  153.45000000000002-71.4Q 154.8-70.8  156.10000000000002-69.3L 156.10000000000002-69.3L 175.5-47.1L 175.5-68.4Q 175.5-70.3  176.35000000000002-71.15Q 177.20000000000002-72  179.10000000000002-72L 179.10000000000002-72L 194.10000000000002-72Q 196-72  196.85000000000002-71.15Q 197.70000000000002-70.3  197.70000000000002-68.4L 197.70000000000002-68.4L 197.70000000000002-3.6Q 197.70000000000002-1.7  196.85000000000002-0.85Q 196 0  194.10000000000002 0L 194.10000000000002 0L 179.10000000000002 0Q 177.20000000000002 0  176.35000000000002-0.85Q 175.5-1.7  175.5-3.6L 175.5-3.6L 175.5-15.9L 158.4-36.6L 158.4-3.6Q 158.4-1.7  157.55-0.85Q 156.70000000000002 0  154.8 0ZM 230.10000000000002 0L 230.10000000000002 0L 215.10000000000002 0Q 213.20000000000002 0  212.35000000000002-0.85Q 211.50000000000003-1.7  211.50000000000003-3.6L 211.50000000000003-3.6L 211.50000000000003-68.4Q 211.50000000000003-70.3  212.35000000000002-71.15Q 213.20000000000002-72  215.10000000000002-72L 215.10000000000002-72L 225.50000000000003-72Q 227.40000000000003-72  228.75000000000003-71.4Q 230.10000000000002-70.8  231.40000000000003-69.3L 231.40000000000003-69.3L 250.8-47.1L 250.8-68.4Q 250.8-70.3  251.65000000000003-71.15Q 252.50000000000003-72  254.40000000000003-72L 254.40000000000003-72L 269.40000000000003-72Q 271.3-72  272.15000000000003-71.15Q 273-70.3  273-68.4L 273-68.4L 273-3.6Q 273-1.7  272.15000000000003-0.85Q 271.3 0  269.40000000000003 0L 269.40000000000003 0L 254.40000000000003 0Q 252.50000000000003 0  251.65000000000003-0.85Q 250.8-1.7  250.8-3.6L 250.8-3.6L 250.8-15.9L 233.70000000000002-36.6L 233.70000000000002-3.6Q 233.70000000000002-1.7  232.85000000000002-0.85Q 232.00000000000003 0  230.10000000000002 0ZM 323.3 0L 323.3 0L 307.1 0Q 305.20000000000005 0  304.35-0.85Q 303.50000000000006-1.7  303.50000000000006-3.6L 303.50000000000006-3.6L 303.50000000000006-16.4L 288.20000000000005-36.9Q 285.90000000000003-40  285.15000000000003-42.3Q 284.40000000000003-44.6  284.40000000000003-49.2L 284.40000000000003-49.2L 284.40000000000003-68.4Q 284.40000000000003-70.3  285.25000000000006-71.15Q 286.1-72  288.00000000000006-72L 288.00000000000006-72L 303.40000000000003-72Q 305.3-72  306.15000000000003-71.15Q 307.00000000000006-70.3  307.00000000000006-68.4L 307.00000000000006-68.4L 307.00000000000006-52Q 307.00000000000006-51  307.1-49.9Q 307.20000000000005-48.8  307.90000000000003-47.8L 307.90000000000003-47.8L 312.50000000000006-40.6Q 313.00000000000006-39.7  313.55-39.3Q 314.1-38.9  314.90000000000003-38.9L 314.90000000000003-38.9L 315.90000000000003-38.9Q 316.70000000000005-38.9  317.25000000000006-39.3Q 317.8-39.7  318.3-40.6L 318.3-40.6L 322.90000000000003-47.8Q 323.6-48.8  323.70000000000005-49.9Q 323.8-51  323.8-52L 323.8-52L 323.8-68.4Q 323.8-70.3  324.65000000000003-71.15Q 325.50000000000006-72  327.40000000000003-72L 327.40000000000003-72L 342.3-72Q 344.20000000000005-72  345.05000000000007-71.15Q 345.90000000000003-70.3  345.90000000000003-68.4L 345.90000000000003-68.4L 345.90000000000003-49.2Q 345.90000000000003-44.6  345.1-42.3Q 344.30000000000007-40  342.1-36.9L 342.1-36.9L 326.90000000000003-16.3L 326.90000000000003-3.6Q 326.90000000000003-1.7  326.05-0.85Q 325.20000000000005 0  323.3 0ZM 418.6-68.4L 418.6-18.9Q 418.6-14.3  417.25-10.55Q 415.90000000000003-6.8  412.45000000000005-4.15Q 409.00000000000006-1.5  403.00000000000006 0Q 397.00000000000006 1.5  387.70000000000005 1.5L 387.70000000000005 1.5Q 378.40000000000003 1.5  372.40000000000003 0Q 366.40000000000003-1.5  362.95000000000005-4.15Q 359.50000000000006-6.8  358.15000000000003-10.55Q 356.8-14.3  356.8-18.9L 356.8-18.9L 356.8-68.4Q 356.8-70.3  357.65000000000003-71.15Q 358.50000000000006-72  360.40000000000003-72L 360.40000000000003-72L 376.1-72Q 378.00000000000006-72  378.85-71.15Q 379.70000000000005-70.3  379.70000000000005-68.4L 379.70000000000005-68.4L 379.70000000000005-22.8Q 379.70000000000005-20.8  381.20000000000005-19.45Q 382.70000000000005-18.1  387.90000000000003-18.1L 387.90000000000003-18.1Q 393.20000000000005-18.1  394.70000000000005-19.45Q 396.20000000000005-20.8  396.20000000000005-22.8L 396.20000000000005-22.8L 396.20000000000005-68.4Q 396.20000000000005-70.3  397.05-71.15Q 397.90000000000003-72  399.8-72L 399.8-72L 415-72Q 416.90000000000003-72  417.75-71.15Q 418.6-70.3  418.6-68.4L 418.6-68.4Z"/>
  <path id="_k08helhpR_Dlyy1GW_-pD" d="M88.09.74H42.29a11.42,11.42,0,0,0-11.41,11.4V31.86H11.06A10.57,10.57,0,0,0,.5,42.42V75A10.57,10.57,0,0,0,11.06,85.6h4.66V96.76A2.5,2.5,0,0,0,20,98.53l13-12.93H51.59A10.57,10.57,0,0,0,62.15,75V59.59H64L78.42,73.95a2.5,2.5,0,0,0,4.27-1.77V59.59h5.41A11.42,11.42,0,0,0,99.5,48.18v-36A11.42,11.42,0,0,0,88.09.74ZM57.15,75a5.57,5.57,0,0,1-5.56,5.56H31.91a2.5,2.5,0,0,0-1.77.73l-9.42,9.4V83.1a2.5,2.5,0,0,0-2.5-2.5H11.06A5.57,5.57,0,0,1,5.5,75V42.42a5.57,5.57,0,0,1,5.56-5.56H30.89V48.18A11.42,11.42,0,0,0,42.29,59.59H57.15ZM94.5,48.18a6.41,6.41,0,0,1-6.41,6.41H80.18a2.5,2.5,0,0,0-2.5,2.5v9.06L66.83,55.32a2.5,2.5,0,0,0-1.77-.73H42.29a6.41,6.41,0,0,1-6.41-6.41v-36a6.41,6.41,0,0,1,6.41-6.4h45.8a6.41,6.41,0,0,1,6.41,6.4Z" stroke="none" fill="#334747" transform="matrix(1.1839749434744553, 0, 0, 1.1839749434744553, 48.00005038726983, 196.79261472630995)" stroke-width="1" data-uid="o_el426ge3d_9"/>
  <path id="_SzOGutgdP9UB7Bpik8ioX" d="M45.002,13.514C32.973-12.474-8.937,1.357,1.718,35.105C7.436,51.887,19.058,59.327,45,78.039    c25.945-18.712,37.563-26.154,43.283-42.934C98.933,1.357,57.028-12.474,45.002,13.514z" stroke="none" fill="#d41717" transform="matrix(0.38680896019010746, 0, 0, 0.38680896019010746, 108.09352721221872, 218.95829238268067)" stroke-width="1" data-uid="o_el426ge3d_10"/>
</svg>
